<?xml version="1.0" encoding="UTF-8"?>
<svg xmlns="http://www.w3.org/2000/svg" width="960" height="430" viewBox="0 0 960 430" role="img" aria-label="dsh-dream-skin 每日 Star 与累计下载量双轴折线图">
  
    <defs>
      <linearGradient id="gradDl" x1="0" y1="0" x2="0" y2="1">
        <stop offset="0%" stop-color="#0cc2b3" stop-opacity="0.24"/>
        <stop offset="100%" stop-color="#0cc2b3" stop-opacity="0"/>
      </linearGradient>
      <linearGradient id="gradSt" x1="0" y1="0" x2="0" y2="1">
        <stop offset="0%" stop-color="#8b5cf6" stop-opacity="0.18"/>
        <stop offset="100%" stop-color="#8b5cf6" stop-opacity="0"/>
      </linearGradient>
      <linearGradient id="bgGrad" x1="0" y1="0" x2="0" y2="1">
        <stop offset="0%" stop-color="#fbfdff"/>
        <stop offset="100%" stop-color="#f2f6fb"/>
      </linearGradient>
    </defs>
  <rect width="960" height="430" fill="url(#bgGrad)"/>
  <g font-family="system-ui,-apple-system,'Segoe UI',sans-serif">
    <text x="18" y="226" font-size="12" fill="#8b5cf6" transform="rotate(-90 18 226)" text-anchor="middle">Star</text>
    <text x="944" y="226" font-size="12" fill="#0cc2b3" transform="rotate(-90 944 226)" text-anchor="middle">累计下载量</text>
  </g>

  
    <text x="78" y="34" font-size="19" font-weight="700" fill="#171c28" font-family="system-ui,-apple-system,'Segoe UI',sans-serif">dsh-dream-skin · 每日成长曲线</text>
    <text x="78" y="54" font-size="12" fill="#7a8399" font-family="system-ui,-apple-system,'Segoe UI',sans-serif">数据自动更新 · 下载量来自 npm，Star 来自 GitHub</text>
  
    <g font-family="system-ui,-apple-system,'Segoe UI',sans-serif">
      <rect x="556" y="22" width="330" height="46" rx="12" fill="#ffffff" fill-opacity="0.72"
        stroke="#e3e8f0" stroke-width="1"/>
      <circle cx="582" cy="40" r="5" fill="#0cc2b3"/>
      <text x="596" y="44" font-size="13" font-weight="600" fill="#2c3344">下载量</text>
      <text x="662" y="44" font-size="13" font-weight="600" fill="#0cc2b3">54.3k</text>
      <circle cx="734" cy="40" r="5" fill="#8b5cf6"/>
      <text x="748" y="44" font-size="13" font-weight="600" fill="#2c3344">Star</text>
      <text x="786" y="44" font-size="13" font-weight="600" fill="#8b5cf6">203</text>
    </g>

  <line x1="78" y1="378.0" x2="886" y2="378.0" stroke="#d3d9e8" stroke-width="1.2" /><line x1="78" y1="317.2" x2="886" y2="317.2" stroke="#e8ebf2" stroke-width="1" stroke-dasharray="3 4"/><line x1="78" y1="256.4" x2="886" y2="256.4" stroke="#e8ebf2" stroke-width="1" stroke-dasharray="3 4"/><line x1="78" y1="195.6" x2="886" y2="195.6" stroke="#e8ebf2" stroke-width="1" stroke-dasharray="3 4"/><line x1="78" y1="134.8" x2="886" y2="134.8" stroke="#e8ebf2" stroke-width="1" stroke-dasharray="3 4"/><line x1="78" y1="74.0" x2="886" y2="74.0" stroke="#e8ebf2" stroke-width="1" stroke-dasharray="3 4"/>
  <g font-family="system-ui,-apple-system,'Segoe UI',sans-serif"><text x="68" y="381.0" text-anchor="end" font-size="11" fill="#9aa3b5">0</text><text x="68" y="320.2" text-anchor="end" font-size="11" fill="#9aa3b5">50</text><text x="68" y="259.4" text-anchor="end" font-size="11" fill="#9aa3b5">100</text><text x="68" y="198.6" text-anchor="end" font-size="11" fill="#9aa3b5">150</text><text x="68" y="137.8" text-anchor="end" font-size="11" fill="#9aa3b5">200</text><text x="68" y="77.0" text-anchor="end" font-size="11" fill="#9aa3b5">250</text><text x="896" y="381.0" text-anchor="start" font-size="11" fill="#9aa3b5">0</text><text x="896" y="320.2" text-anchor="start" font-size="11" fill="#9aa3b5">12.5k</text><text x="896" y="259.4" text-anchor="start" font-size="11" fill="#9aa3b5">25k</text><text x="896" y="198.6" text-anchor="start" font-size="11" fill="#9aa3b5">37.5k</text><text x="896" y="137.8" text-anchor="start" font-size="11" fill="#9aa3b5">50k</text><text x="896" y="77.0" text-anchor="start" font-size="11" fill="#9aa3b5">62.5k</text></g>

  <!-- 轴线 -->
  <line x1="78" y1="74" x2="78" y2="378" stroke="#cdd3e2" stroke-width="1"/>
  <line x1="78" y1="378" x2="886" y2="378" stroke="#cdd3e2" stroke-width="1"/>

  <path d="M 78.0 378.0 L 78.0 371.6 L 94.5 366.3 L 111.0 360.7 L 127.5 356.2 L 144.0 351.2 L 160.4 347.0 L 176.9 336.1 L 193.4 329.4 L 209.9 324.4 L 226.4 317.3 L 242.9 307.9 L 259.4 300.5 L 275.9 294.1 L 292.4 288.1 L 308.9 280.8 L 325.3 275.8 L 341.8 270.1 L 358.3 265.5 L 374.8 261.4 L 391.3 261.4 L 407.8 257.7 L 424.3 254.3 L 440.8 251.2 L 457.3 251.2 L 473.8 251.2 L 490.2 247.4 L 506.7 241.2 L 523.2 233.4 L 539.7 228.7 L 556.2 223.4 L 572.7 211.3 L 589.2 211.3 L 605.7 203.9 L 622.2 197.5 L 638.7 192.6 L 655.1 188.8 L 671.6 184.3 L 688.1 180.5 L 704.6 177.2 L 721.1 172.0 L 737.6 167.1 L 754.1 163.6 L 770.6 158.6 L 787.1 152.2 L 803.6 146.4 L 820.0 138.5 L 836.5 128.2 L 853.0 122.1 L 869.5 117.8 L 886.0 113.7 L 886.0 378.0 Z" fill="url(#gradDl)" stroke="none"/>
  <path d="M 78.0 378.0 L 78.0 370.7 L 94.5 341.5 L 111.0 326.9 L 127.5 312.3 L 144.0 303.8 L 160.4 301.4 L 176.9 291.7 L 193.4 281.9 L 209.9 273.4 L 226.4 263.7 L 242.9 249.1 L 259.4 243.0 L 275.9 235.7 L 292.4 232.1 L 308.9 227.2 L 325.3 223.6 L 341.8 221.1 L 358.3 219.9 L 374.8 216.3 L 391.3 211.4 L 407.8 210.2 L 424.3 202.9 L 440.8 200.5 L 457.3 198.0 L 473.8 196.8 L 490.2 195.6 L 506.7 188.3 L 523.2 185.9 L 539.7 185.9 L 556.2 184.7 L 572.7 181.0 L 589.2 177.4 L 605.7 170.1 L 622.2 166.4 L 638.7 165.2 L 655.1 164.0 L 671.6 161.6 L 688.1 161.6 L 704.6 160.3 L 721.1 156.7 L 737.6 155.5 L 754.1 153.0 L 770.6 149.4 L 787.1 147.0 L 803.6 144.5 L 820.0 142.1 L 836.5 138.4 L 853.0 136.0 L 869.5 132.4 L 886.0 131.2 L 886.0 378.0 Z" fill="url(#gradSt)" stroke="none"/>
  <polyline points="78.0,370.7 94.5,341.5 111.0,326.9 127.5,312.3 144.0,303.8 160.4,301.4 176.9,291.7 193.4,281.9 209.9,273.4 226.4,263.7 242.9,249.1 259.4,243.0 275.9,235.7 292.4,232.1 308.9,227.2 325.3,223.6 341.8,221.1 358.3,219.9 374.8,216.3 391.3,211.4 407.8,210.2 424.3,202.9 440.8,200.5 457.3,198.0 473.8,196.8 490.2,195.6 506.7,188.3 523.2,185.9 539.7,185.9 556.2,184.7 572.7,181.0 589.2,177.4 605.7,170.1 622.2,166.4 638.7,165.2 655.1,164.0 671.6,161.6 688.1,161.6 704.6,160.3 721.1,156.7 737.6,155.5 754.1,153.0 770.6,149.4 787.1,147.0 803.6,144.5 820.0,142.1 836.5,138.4 853.0,136.0 869.5,132.4 886.0,131.2" fill="none" stroke="#8b5cf6" stroke-width="3" stroke-linecap="round" stroke-linejoin="round"/>
  <circle cx="78.0" cy="370.7" r="3.2" fill="#ffffff" stroke="#8b5cf6" stroke-width="1.8"/><circle cx="94.5" cy="341.5" r="3.2" fill="#ffffff" stroke="#8b5cf6" stroke-width="1.8"/><circle cx="111.0" cy="326.9" r="3.2" fill="#ffffff" stroke="#8b5cf6" stroke-width="1.8"/><circle cx="127.5" cy="312.3" r="3.2" fill="#ffffff" stroke="#8b5cf6" stroke-width="1.8"/><circle cx="144.0" cy="303.8" r="3.2" fill="#ffffff" stroke="#8b5cf6" stroke-width="1.8"/><circle cx="160.4" cy="301.4" r="3.2" fill="#ffffff" stroke="#8b5cf6" stroke-width="1.8"/><circle cx="176.9" cy="291.7" r="3.2" fill="#ffffff" stroke="#8b5cf6" stroke-width="1.8"/><circle cx="193.4" cy="281.9" r="3.2" fill="#ffffff" stroke="#8b5cf6" stroke-width="1.8"/><circle cx="209.9" cy="273.4" r="3.2" fill="#ffffff" stroke="#8b5cf6" stroke-width="1.8"/><circle cx="226.4" cy="263.7" r="3.2" fill="#ffffff" stroke="#8b5cf6" stroke-width="1.8"/><circle cx="242.9" cy="249.1" r="3.2" fill="#ffffff" stroke="#8b5cf6" stroke-width="1.8"/><circle cx="259.4" cy="243.0" r="3.2" fill="#ffffff" stroke="#8b5cf6" stroke-width="1.8"/><circle cx="275.9" cy="235.7" r="3.2" fill="#ffffff" stroke="#8b5cf6" stroke-width="1.8"/><circle cx="292.4" cy="232.1" r="3.2" fill="#ffffff" stroke="#8b5cf6" stroke-width="1.8"/><circle cx="308.9" cy="227.2" r="3.2" fill="#ffffff" stroke="#8b5cf6" stroke-width="1.8"/><circle cx="325.3" cy="223.6" r="3.2" fill="#ffffff" stroke="#8b5cf6" stroke-width="1.8"/><circle cx="341.8" cy="221.1" r="3.2" fill="#ffffff" stroke="#8b5cf6" stroke-width="1.8"/><circle cx="358.3" cy="219.9" r="3.2" fill="#ffffff" stroke="#8b5cf6" stroke-width="1.8"/><circle cx="374.8" cy="216.3" r="3.2" fill="#ffffff" stroke="#8b5cf6" stroke-width="1.8"/><circle cx="391.3" cy="211.4" r="3.2" fill="#ffffff" stroke="#8b5cf6" stroke-width="1.8"/><circle cx="407.8" cy="210.2" r="3.2" fill="#ffffff" stroke="#8b5cf6" stroke-width="1.8"/><circle cx="424.3" cy="202.9" r="3.2" fill="#ffffff" stroke="#8b5cf6" stroke-width="1.8"/><circle cx="440.8" cy="200.5" r="3.2" fill="#ffffff" stroke="#8b5cf6" stroke-width="1.8"/><circle cx="457.3" cy="198.0" r="3.2" fill="#ffffff" stroke="#8b5cf6" stroke-width="1.8"/><circle cx="473.8" cy="196.8" r="3.2" fill="#ffffff" stroke="#8b5cf6" stroke-width="1.8"/><circle cx="490.2" cy="195.6" r="3.2" fill="#ffffff" stroke="#8b5cf6" stroke-width="1.8"/><circle cx="506.7" cy="188.3" r="3.2" fill="#ffffff" stroke="#8b5cf6" stroke-width="1.8"/><circle cx="523.2" cy="185.9" r="3.2" fill="#ffffff" stroke="#8b5cf6" stroke-width="1.8"/><circle cx="539.7" cy="185.9" r="3.2" fill="#ffffff" stroke="#8b5cf6" stroke-width="1.8"/><circle cx="556.2" cy="184.7" r="3.2" fill="#ffffff" stroke="#8b5cf6" stroke-width="1.8"/><circle cx="572.7" cy="181.0" r="3.2" fill="#ffffff" stroke="#8b5cf6" stroke-width="1.8"/><circle cx="589.2" cy="177.4" r="3.2" fill="#ffffff" stroke="#8b5cf6" stroke-width="1.8"/><circle cx="605.7" cy="170.1" r="3.2" fill="#ffffff" stroke="#8b5cf6" stroke-width="1.8"/><circle cx="622.2" cy="166.4" r="3.2" fill="#ffffff" stroke="#8b5cf6" stroke-width="1.8"/><circle cx="638.7" cy="165.2" r="3.2" fill="#ffffff" stroke="#8b5cf6" stroke-width="1.8"/><circle cx="655.1" cy="164.0" r="3.2" fill="#ffffff" stroke="#8b5cf6" stroke-width="1.8"/><circle cx="671.6" cy="161.6" r="3.2" fill="#ffffff" stroke="#8b5cf6" stroke-width="1.8"/><circle cx="688.1" cy="161.6" r="3.2" fill="#ffffff" stroke="#8b5cf6" stroke-width="1.8"/><circle cx="704.6" cy="160.3" r="3.2" fill="#ffffff" stroke="#8b5cf6" stroke-width="1.8"/><circle cx="721.1" cy="156.7" r="3.2" fill="#ffffff" stroke="#8b5cf6" stroke-width="1.8"/><circle cx="737.6" cy="155.5" r="3.2" fill="#ffffff" stroke="#8b5cf6" stroke-width="1.8"/><circle cx="754.1" cy="153.0" r="3.2" fill="#ffffff" stroke="#8b5cf6" stroke-width="1.8"/><circle cx="770.6" cy="149.4" r="3.2" fill="#ffffff" stroke="#8b5cf6" stroke-width="1.8"/><circle cx="787.1" cy="147.0" r="3.2" fill="#ffffff" stroke="#8b5cf6" stroke-width="1.8"/><circle cx="803.6" cy="144.5" r="3.2" fill="#ffffff" stroke="#8b5cf6" stroke-width="1.8"/><circle cx="820.0" cy="142.1" r="3.2" fill="#ffffff" stroke="#8b5cf6" stroke-width="1.8"/><circle cx="836.5" cy="138.4" r="3.2" fill="#ffffff" stroke="#8b5cf6" stroke-width="1.8"/><circle cx="853.0" cy="136.0" r="3.2" fill="#ffffff" stroke="#8b5cf6" stroke-width="1.8"/><circle cx="869.5" cy="132.4" r="3.2" fill="#ffffff" stroke="#8b5cf6" stroke-width="1.8"/><circle cx="886.0" cy="131.2" r="4.6" fill="#ffffff" stroke="#8b5cf6" stroke-width="2.6"/>
  <polyline points="78.0,371.6 94.5,366.3 111.0,360.7 127.5,356.2 144.0,351.2 160.4,347.0 176.9,336.1 193.4,329.4 209.9,324.4 226.4,317.3 242.9,307.9 259.4,300.5 275.9,294.1 292.4,288.1 308.9,280.8 325.3,275.8 341.8,270.1 358.3,265.5 374.8,261.4 391.3,261.4 407.8,257.7 424.3,254.3 440.8,251.2 457.3,251.2 473.8,251.2 490.2,247.4 506.7,241.2 523.2,233.4 539.7,228.7 556.2,223.4 572.7,211.3 589.2,211.3 605.7,203.9 622.2,197.5 638.7,192.6 655.1,188.8 671.6,184.3 688.1,180.5 704.6,177.2 721.1,172.0 737.6,167.1 754.1,163.6 770.6,158.6 787.1,152.2 803.6,146.4 820.0,138.5 836.5,128.2 853.0,122.1 869.5,117.8 886.0,113.7" fill="none" stroke="#0cc2b3" stroke-width="3.2" stroke-linecap="round" stroke-linejoin="round"/>
  <circle cx="78.0" cy="371.6" r="3.2" fill="#ffffff" stroke="#0cc2b3" stroke-width="1.8"/><circle cx="94.5" cy="366.3" r="3.2" fill="#ffffff" stroke="#0cc2b3" stroke-width="1.8"/><circle cx="111.0" cy="360.7" r="3.2" fill="#ffffff" stroke="#0cc2b3" stroke-width="1.8"/><circle cx="127.5" cy="356.2" r="3.2" fill="#ffffff" stroke="#0cc2b3" stroke-width="1.8"/><circle cx="144.0" cy="351.2" r="3.2" fill="#ffffff" stroke="#0cc2b3" stroke-width="1.8"/><circle cx="160.4" cy="347.0" r="3.2" fill="#ffffff" stroke="#0cc2b3" stroke-width="1.8"/><circle cx="176.9" cy="336.1" r="3.2" fill="#ffffff" stroke="#0cc2b3" stroke-width="1.8"/><circle cx="193.4" cy="329.4" r="3.2" fill="#ffffff" stroke="#0cc2b3" stroke-width="1.8"/><circle cx="209.9" cy="324.4" r="3.2" fill="#ffffff" stroke="#0cc2b3" stroke-width="1.8"/><circle cx="226.4" cy="317.3" r="3.2" fill="#ffffff" stroke="#0cc2b3" stroke-width="1.8"/><circle cx="242.9" cy="307.9" r="3.2" fill="#ffffff" stroke="#0cc2b3" stroke-width="1.8"/><circle cx="259.4" cy="300.5" r="3.2" fill="#ffffff" stroke="#0cc2b3" stroke-width="1.8"/><circle cx="275.9" cy="294.1" r="3.2" fill="#ffffff" stroke="#0cc2b3" stroke-width="1.8"/><circle cx="292.4" cy="288.1" r="3.2" fill="#ffffff" stroke="#0cc2b3" stroke-width="1.8"/><circle cx="308.9" cy="280.8" r="3.2" fill="#ffffff" stroke="#0cc2b3" stroke-width="1.8"/><circle cx="325.3" cy="275.8" r="3.2" fill="#ffffff" stroke="#0cc2b3" stroke-width="1.8"/><circle cx="341.8" cy="270.1" r="3.2" fill="#ffffff" stroke="#0cc2b3" stroke-width="1.8"/><circle cx="358.3" cy="265.5" r="3.2" fill="#ffffff" stroke="#0cc2b3" stroke-width="1.8"/><circle cx="374.8" cy="261.4" r="3.2" fill="#ffffff" stroke="#0cc2b3" stroke-width="1.8"/><circle cx="391.3" cy="261.4" r="3.2" fill="#ffffff" stroke="#0cc2b3" stroke-width="1.8"/><circle cx="407.8" cy="257.7" r="3.2" fill="#ffffff" stroke="#0cc2b3" stroke-width="1.8"/><circle cx="424.3" cy="254.3" r="3.2" fill="#ffffff" stroke="#0cc2b3" stroke-width="1.8"/><circle cx="440.8" cy="251.2" r="3.2" fill="#ffffff" stroke="#0cc2b3" stroke-width="1.8"/><circle cx="457.3" cy="251.2" r="3.2" fill="#ffffff" stroke="#0cc2b3" stroke-width="1.8"/><circle cx="473.8" cy="251.2" r="3.2" fill="#ffffff" stroke="#0cc2b3" stroke-width="1.8"/><circle cx="490.2" cy="247.4" r="3.2" fill="#ffffff" stroke="#0cc2b3" stroke-width="1.8"/><circle cx="506.7" cy="241.2" r="3.2" fill="#ffffff" stroke="#0cc2b3" stroke-width="1.8"/><circle cx="523.2" cy="233.4" r="3.2" fill="#ffffff" stroke="#0cc2b3" stroke-width="1.8"/><circle cx="539.7" cy="228.7" r="3.2" fill="#ffffff" stroke="#0cc2b3" stroke-width="1.8"/><circle cx="556.2" cy="223.4" r="3.2" fill="#ffffff" stroke="#0cc2b3" stroke-width="1.8"/><circle cx="572.7" cy="211.3" r="3.2" fill="#ffffff" stroke="#0cc2b3" stroke-width="1.8"/><circle cx="589.2" cy="211.3" r="3.2" fill="#ffffff" stroke="#0cc2b3" stroke-width="1.8"/><circle cx="605.7" cy="203.9" r="3.2" fill="#ffffff" stroke="#0cc2b3" stroke-width="1.8"/><circle cx="622.2" cy="197.5" r="3.2" fill="#ffffff" stroke="#0cc2b3" stroke-width="1.8"/><circle cx="638.7" cy="192.6" r="3.2" fill="#ffffff" stroke="#0cc2b3" stroke-width="1.8"/><circle cx="655.1" cy="188.8" r="3.2" fill="#ffffff" stroke="#0cc2b3" stroke-width="1.8"/><circle cx="671.6" cy="184.3" r="3.2" fill="#ffffff" stroke="#0cc2b3" stroke-width="1.8"/><circle cx="688.1" cy="180.5" r="3.2" fill="#ffffff" stroke="#0cc2b3" stroke-width="1.8"/><circle cx="704.6" cy="177.2" r="3.2" fill="#ffffff" stroke="#0cc2b3" stroke-width="1.8"/><circle cx="721.1" cy="172.0" r="3.2" fill="#ffffff" stroke="#0cc2b3" stroke-width="1.8"/><circle cx="737.6" cy="167.1" r="3.2" fill="#ffffff" stroke="#0cc2b3" stroke-width="1.8"/><circle cx="754.1" cy="163.6" r="3.2" fill="#ffffff" stroke="#0cc2b3" stroke-width="1.8"/><circle cx="770.6" cy="158.6" r="3.2" fill="#ffffff" stroke="#0cc2b3" stroke-width="1.8"/><circle cx="787.1" cy="152.2" r="3.2" fill="#ffffff" stroke="#0cc2b3" stroke-width="1.8"/><circle cx="803.6" cy="146.4" r="3.2" fill="#ffffff" stroke="#0cc2b3" stroke-width="1.8"/><circle cx="820.0" cy="138.5" r="3.2" fill="#ffffff" stroke="#0cc2b3" stroke-width="1.8"/><circle cx="836.5" cy="128.2" r="3.2" fill="#ffffff" stroke="#0cc2b3" stroke-width="1.8"/><circle cx="853.0" cy="122.1" r="3.2" fill="#ffffff" stroke="#0cc2b3" stroke-width="1.8"/><circle cx="869.5" cy="117.8" r="3.2" fill="#ffffff" stroke="#0cc2b3" stroke-width="1.8"/><circle cx="886.0" cy="113.7" r="4.6" fill="#ffffff" stroke="#0cc2b3" stroke-width="2.6"/>
  <text x="78.0" y="398" text-anchor="middle" font-size="11" fill="#9aa3b5" >08-15</text><text x="160.4" y="398" text-anchor="middle" font-size="11" fill="#9aa3b5" >08-20</text><text x="242.9" y="398" text-anchor="middle" font-size="11" fill="#9aa3b5" >08-25</text><text x="325.3" y="398" text-anchor="middle" font-size="11" fill="#9aa3b5" >08-30</text><text x="407.8" y="398" text-anchor="middle" font-size="11" fill="#9aa3b5" >09-04</text><text x="490.2" y="398" text-anchor="middle" font-size="11" fill="#9aa3b5" >09-09</text><text x="572.7" y="398" text-anchor="middle" font-size="11" fill="#9aa3b5" >09-14</text><text x="655.1" y="398" text-anchor="middle" font-size="11" fill="#9aa3b5" >09-19</text><text x="737.6" y="398" text-anchor="middle" font-size="11" fill="#9aa3b5" >09-24</text><text x="820.0" y="398" text-anchor="middle" font-size="11" fill="#9aa3b5" >09-29</text><text x="886.0" y="398" text-anchor="middle" font-size="11" fill="#0cc2b3" font-weight="600">10-03</text>
  
    <text x="886" y="418" text-anchor="end" font-size="11" fill="#7a8399" font-family="system-ui,-apple-system,'Segoe UI',sans-serif">数据截至 2026-10-03（npm 结算有约 1 天延迟）</text>
</svg>
