<?xml version="1.0" encoding="UTF-8"?>
<svg xmlns="http://www.w3.org/2000/svg" width="960" height="430" viewBox="0 0 960 430" role="img" aria-label="dsh-dream-skin 每日 Star 与累计下载量双轴折线图">
  
    <defs>
      <linearGradient id="gradDl" x1="0" y1="0" x2="0" y2="1">
        <stop offset="0%" stop-color="#0cc2b3" stop-opacity="0.24"/>
        <stop offset="100%" stop-color="#0cc2b3" stop-opacity="0"/>
      </linearGradient>
      <linearGradient id="gradSt" x1="0" y1="0" x2="0" y2="1">
        <stop offset="0%" stop-color="#8b5cf6" stop-opacity="0.18"/>
        <stop offset="100%" stop-color="#8b5cf6" stop-opacity="0"/>
      </linearGradient>
      <linearGradient id="bgGrad" x1="0" y1="0" x2="0" y2="1">
        <stop offset="0%" stop-color="#fbfdff"/>
        <stop offset="100%" stop-color="#f2f6fb"/>
      </linearGradient>
    </defs>
  <rect width="960" height="430" fill="url(#bgGrad)"/>
  <g font-family="system-ui,-apple-system,'Segoe UI',sans-serif">
    <text x="18" y="226" font-size="12" fill="#8b5cf6" transform="rotate(-90 18 226)" text-anchor="middle">Star</text>
    <text x="944" y="226" font-size="12" fill="#0cc2b3" transform="rotate(-90 944 226)" text-anchor="middle">累计下载量</text>
  </g>

  
    <text x="78" y="34" font-size="19" font-weight="700" fill="#171c28" font-family="system-ui,-apple-system,'Segoe UI',sans-serif">dsh-dream-skin · 每日成长曲线</text>
    <text x="78" y="54" font-size="12" fill="#7a8399" font-family="system-ui,-apple-system,'Segoe UI',sans-serif">数据自动更新 · 下载量来自 npm，Star 来自 GitHub</text>
  
    <g font-family="system-ui,-apple-system,'Segoe UI',sans-serif">
      <rect x="556" y="22" width="330" height="46" rx="12" fill="#ffffff" fill-opacity="0.72"
        stroke="#e3e8f0" stroke-width="1"/>
      <circle cx="582" cy="40" r="5" fill="#0cc2b3"/>
      <text x="596" y="44" font-size="13" font-weight="600" fill="#2c3344">下载量</text>
      <text x="662" y="44" font-size="13" font-weight="600" fill="#0cc2b3">53.5k</text>
      <circle cx="734" cy="40" r="5" fill="#8b5cf6"/>
      <text x="748" y="44" font-size="13" font-weight="600" fill="#2c3344">Star</text>
      <text x="786" y="44" font-size="13" font-weight="600" fill="#8b5cf6">202</text>
    </g>

  <line x1="78" y1="378.0" x2="886" y2="378.0" stroke="#d3d9e8" stroke-width="1.2" /><line x1="78" y1="317.2" x2="886" y2="317.2" stroke="#e8ebf2" stroke-width="1" stroke-dasharray="3 4"/><line x1="78" y1="256.4" x2="886" y2="256.4" stroke="#e8ebf2" stroke-width="1" stroke-dasharray="3 4"/><line x1="78" y1="195.6" x2="886" y2="195.6" stroke="#e8ebf2" stroke-width="1" stroke-dasharray="3 4"/><line x1="78" y1="134.8" x2="886" y2="134.8" stroke="#e8ebf2" stroke-width="1" stroke-dasharray="3 4"/><line x1="78" y1="74.0" x2="886" y2="74.0" stroke="#e8ebf2" stroke-width="1" stroke-dasharray="3 4"/>
  <g font-family="system-ui,-apple-system,'Segoe UI',sans-serif"><text x="68" y="381.0" text-anchor="end" font-size="11" fill="#9aa3b5">0</text><text x="68" y="320.2" text-anchor="end" font-size="11" fill="#9aa3b5">50</text><text x="68" y="259.4" text-anchor="end" font-size="11" fill="#9aa3b5">100</text><text x="68" y="198.6" text-anchor="end" font-size="11" fill="#9aa3b5">150</text><text x="68" y="137.8" text-anchor="end" font-size="11" fill="#9aa3b5">200</text><text x="68" y="77.0" text-anchor="end" font-size="11" fill="#9aa3b5">250</text><text x="896" y="381.0" text-anchor="start" font-size="11" fill="#9aa3b5">0</text><text x="896" y="320.2" text-anchor="start" font-size="11" fill="#9aa3b5">12.5k</text><text x="896" y="259.4" text-anchor="start" font-size="11" fill="#9aa3b5">25k</text><text x="896" y="198.6" text-anchor="start" font-size="11" fill="#9aa3b5">37.5k</text><text x="896" y="137.8" text-anchor="start" font-size="11" fill="#9aa3b5">50k</text><text x="896" y="77.0" text-anchor="start" font-size="11" fill="#9aa3b5">62.5k</text></g>

  <!-- 轴线 -->
  <line x1="78" y1="74" x2="78" y2="378" stroke="#cdd3e2" stroke-width="1"/>
  <line x1="78" y1="378" x2="886" y2="378" stroke="#cdd3e2" stroke-width="1"/>

  <path d="M 78.0 378.0 L 78.0 371.6 L 94.8 366.3 L 111.7 360.7 L 128.5 356.2 L 145.3 351.2 L 162.2 347.0 L 179.0 336.1 L 195.8 329.4 L 212.7 324.4 L 229.5 317.3 L 246.3 307.9 L 263.2 300.5 L 280.0 294.1 L 296.8 288.1 L 313.7 280.8 L 330.5 275.8 L 347.3 270.1 L 364.2 265.5 L 381.0 261.4 L 397.8 261.4 L 414.7 257.7 L 431.5 254.3 L 448.3 251.2 L 465.2 251.2 L 482.0 251.2 L 498.8 247.4 L 515.7 241.2 L 532.5 233.4 L 549.3 228.7 L 566.2 223.4 L 583.0 211.3 L 599.8 211.3 L 616.7 203.9 L 633.5 197.5 L 650.3 192.6 L 667.2 188.8 L 684.0 184.3 L 700.8 180.5 L 717.7 177.2 L 734.5 172.0 L 751.3 167.1 L 768.2 163.6 L 785.0 158.6 L 801.8 152.2 L 818.7 146.4 L 835.5 138.5 L 852.3 128.2 L 869.2 122.1 L 886.0 117.8 L 886.0 378.0 Z" fill="url(#gradDl)" stroke="none"/>
  <path d="M 78.0 378.0 L 78.0 370.7 L 94.8 341.5 L 111.7 326.9 L 128.5 312.3 L 145.3 303.8 L 162.2 301.4 L 179.0 291.7 L 195.8 281.9 L 212.7 273.4 L 229.5 263.7 L 246.3 249.1 L 263.2 243.0 L 280.0 235.7 L 296.8 232.1 L 313.7 227.2 L 330.5 223.6 L 347.3 221.1 L 364.2 219.9 L 381.0 216.3 L 397.8 211.4 L 414.7 210.2 L 431.5 202.9 L 448.3 200.5 L 465.2 198.0 L 482.0 196.8 L 498.8 195.6 L 515.7 188.3 L 532.5 185.9 L 549.3 185.9 L 566.2 184.7 L 583.0 181.0 L 599.8 177.4 L 616.7 170.1 L 633.5 166.4 L 650.3 165.2 L 667.2 164.0 L 684.0 161.6 L 700.8 161.6 L 717.7 160.3 L 734.5 156.7 L 751.3 155.5 L 768.2 153.0 L 785.0 149.4 L 801.8 147.0 L 818.7 144.5 L 835.5 142.1 L 852.3 138.4 L 869.2 136.0 L 886.0 132.4 L 886.0 378.0 Z" fill="url(#gradSt)" stroke="none"/>
  <polyline points="78.0,370.7 94.8,341.5 111.7,326.9 128.5,312.3 145.3,303.8 162.2,301.4 179.0,291.7 195.8,281.9 212.7,273.4 229.5,263.7 246.3,249.1 263.2,243.0 280.0,235.7 296.8,232.1 313.7,227.2 330.5,223.6 347.3,221.1 364.2,219.9 381.0,216.3 397.8,211.4 414.7,210.2 431.5,202.9 448.3,200.5 465.2,198.0 482.0,196.8 498.8,195.6 515.7,188.3 532.5,185.9 549.3,185.9 566.2,184.7 583.0,181.0 599.8,177.4 616.7,170.1 633.5,166.4 650.3,165.2 667.2,164.0 684.0,161.6 700.8,161.6 717.7,160.3 734.5,156.7 751.3,155.5 768.2,153.0 785.0,149.4 801.8,147.0 818.7,144.5 835.5,142.1 852.3,138.4 869.2,136.0 886.0,132.4" fill="none" stroke="#8b5cf6" stroke-width="3" stroke-linecap="round" stroke-linejoin="round"/>
  <circle cx="78.0" cy="370.7" r="3.2" fill="#ffffff" stroke="#8b5cf6" stroke-width="1.8"/><circle cx="94.8" cy="341.5" r="3.2" fill="#ffffff" stroke="#8b5cf6" stroke-width="1.8"/><circle cx="111.7" cy="326.9" r="3.2" fill="#ffffff" stroke="#8b5cf6" stroke-width="1.8"/><circle cx="128.5" cy="312.3" r="3.2" fill="#ffffff" stroke="#8b5cf6" stroke-width="1.8"/><circle cx="145.3" cy="303.8" r="3.2" fill="#ffffff" stroke="#8b5cf6" stroke-width="1.8"/><circle cx="162.2" cy="301.4" r="3.2" fill="#ffffff" stroke="#8b5cf6" stroke-width="1.8"/><circle cx="179.0" cy="291.7" r="3.2" fill="#ffffff" stroke="#8b5cf6" stroke-width="1.8"/><circle cx="195.8" cy="281.9" r="3.2" fill="#ffffff" stroke="#8b5cf6" stroke-width="1.8"/><circle cx="212.7" cy="273.4" r="3.2" fill="#ffffff" stroke="#8b5cf6" stroke-width="1.8"/><circle cx="229.5" cy="263.7" r="3.2" fill="#ffffff" stroke="#8b5cf6" stroke-width="1.8"/><circle cx="246.3" cy="249.1" r="3.2" fill="#ffffff" stroke="#8b5cf6" stroke-width="1.8"/><circle cx="263.2" cy="243.0" r="3.2" fill="#ffffff" stroke="#8b5cf6" stroke-width="1.8"/><circle cx="280.0" cy="235.7" r="3.2" fill="#ffffff" stroke="#8b5cf6" stroke-width="1.8"/><circle cx="296.8" cy="232.1" r="3.2" fill="#ffffff" stroke="#8b5cf6" stroke-width="1.8"/><circle cx="313.7" cy="227.2" r="3.2" fill="#ffffff" stroke="#8b5cf6" stroke-width="1.8"/><circle cx="330.5" cy="223.6" r="3.2" fill="#ffffff" stroke="#8b5cf6" stroke-width="1.8"/><circle cx="347.3" cy="221.1" r="3.2" fill="#ffffff" stroke="#8b5cf6" stroke-width="1.8"/><circle cx="364.2" cy="219.9" r="3.2" fill="#ffffff" stroke="#8b5cf6" stroke-width="1.8"/><circle cx="381.0" cy="216.3" r="3.2" fill="#ffffff" stroke="#8b5cf6" stroke-width="1.8"/><circle cx="397.8" cy="211.4" r="3.2" fill="#ffffff" stroke="#8b5cf6" stroke-width="1.8"/><circle cx="414.7" cy="210.2" r="3.2" fill="#ffffff" stroke="#8b5cf6" stroke-width="1.8"/><circle cx="431.5" cy="202.9" r="3.2" fill="#ffffff" stroke="#8b5cf6" stroke-width="1.8"/><circle cx="448.3" cy="200.5" r="3.2" fill="#ffffff" stroke="#8b5cf6" stroke-width="1.8"/><circle cx="465.2" cy="198.0" r="3.2" fill="#ffffff" stroke="#8b5cf6" stroke-width="1.8"/><circle cx="482.0" cy="196.8" r="3.2" fill="#ffffff" stroke="#8b5cf6" stroke-width="1.8"/><circle cx="498.8" cy="195.6" r="3.2" fill="#ffffff" stroke="#8b5cf6" stroke-width="1.8"/><circle cx="515.7" cy="188.3" r="3.2" fill="#ffffff" stroke="#8b5cf6" stroke-width="1.8"/><circle cx="532.5" cy="185.9" r="3.2" fill="#ffffff" stroke="#8b5cf6" stroke-width="1.8"/><circle cx="549.3" cy="185.9" r="3.2" fill="#ffffff" stroke="#8b5cf6" stroke-width="1.8"/><circle cx="566.2" cy="184.7" r="3.2" fill="#ffffff" stroke="#8b5cf6" stroke-width="1.8"/><circle cx="583.0" cy="181.0" r="3.2" fill="#ffffff" stroke="#8b5cf6" stroke-width="1.8"/><circle cx="599.8" cy="177.4" r="3.2" fill="#ffffff" stroke="#8b5cf6" stroke-width="1.8"/><circle cx="616.7" cy="170.1" r="3.2" fill="#ffffff" stroke="#8b5cf6" stroke-width="1.8"/><circle cx="633.5" cy="166.4" r="3.2" fill="#ffffff" stroke="#8b5cf6" stroke-width="1.8"/><circle cx="650.3" cy="165.2" r="3.2" fill="#ffffff" stroke="#8b5cf6" stroke-width="1.8"/><circle cx="667.2" cy="164.0" r="3.2" fill="#ffffff" stroke="#8b5cf6" stroke-width="1.8"/><circle cx="684.0" cy="161.6" r="3.2" fill="#ffffff" stroke="#8b5cf6" stroke-width="1.8"/><circle cx="700.8" cy="161.6" r="3.2" fill="#ffffff" stroke="#8b5cf6" stroke-width="1.8"/><circle cx="717.7" cy="160.3" r="3.2" fill="#ffffff" stroke="#8b5cf6" stroke-width="1.8"/><circle cx="734.5" cy="156.7" r="3.2" fill="#ffffff" stroke="#8b5cf6" stroke-width="1.8"/><circle cx="751.3" cy="155.5" r="3.2" fill="#ffffff" stroke="#8b5cf6" stroke-width="1.8"/><circle cx="768.2" cy="153.0" r="3.2" fill="#ffffff" stroke="#8b5cf6" stroke-width="1.8"/><circle cx="785.0" cy="149.4" r="3.2" fill="#ffffff" stroke="#8b5cf6" stroke-width="1.8"/><circle cx="801.8" cy="147.0" r="3.2" fill="#ffffff" stroke="#8b5cf6" stroke-width="1.8"/><circle cx="818.7" cy="144.5" r="3.2" fill="#ffffff" stroke="#8b5cf6" stroke-width="1.8"/><circle cx="835.5" cy="142.1" r="3.2" fill="#ffffff" stroke="#8b5cf6" stroke-width="1.8"/><circle cx="852.3" cy="138.4" r="3.2" fill="#ffffff" stroke="#8b5cf6" stroke-width="1.8"/><circle cx="869.2" cy="136.0" r="3.2" fill="#ffffff" stroke="#8b5cf6" stroke-width="1.8"/><circle cx="886.0" cy="132.4" r="4.6" fill="#ffffff" stroke="#8b5cf6" stroke-width="2.6"/>
  <polyline points="78.0,371.6 94.8,366.3 111.7,360.7 128.5,356.2 145.3,351.2 162.2,347.0 179.0,336.1 195.8,329.4 212.7,324.4 229.5,317.3 246.3,307.9 263.2,300.5 280.0,294.1 296.8,288.1 313.7,280.8 330.5,275.8 347.3,270.1 364.2,265.5 381.0,261.4 397.8,261.4 414.7,257.7 431.5,254.3 448.3,251.2 465.2,251.2 482.0,251.2 498.8,247.4 515.7,241.2 532.5,233.4 549.3,228.7 566.2,223.4 583.0,211.3 599.8,211.3 616.7,203.9 633.5,197.5 650.3,192.6 667.2,188.8 684.0,184.3 700.8,180.5 717.7,177.2 734.5,172.0 751.3,167.1 768.2,163.6 785.0,158.6 801.8,152.2 818.7,146.4 835.5,138.5 852.3,128.2 869.2,122.1 886.0,117.8" fill="none" stroke="#0cc2b3" stroke-width="3.2" stroke-linecap="round" stroke-linejoin="round"/>
  <circle cx="78.0" cy="371.6" r="3.2" fill="#ffffff" stroke="#0cc2b3" stroke-width="1.8"/><circle cx="94.8" cy="366.3" r="3.2" fill="#ffffff" stroke="#0cc2b3" stroke-width="1.8"/><circle cx="111.7" cy="360.7" r="3.2" fill="#ffffff" stroke="#0cc2b3" stroke-width="1.8"/><circle cx="128.5" cy="356.2" r="3.2" fill="#ffffff" stroke="#0cc2b3" stroke-width="1.8"/><circle cx="145.3" cy="351.2" r="3.2" fill="#ffffff" stroke="#0cc2b3" stroke-width="1.8"/><circle cx="162.2" cy="347.0" r="3.2" fill="#ffffff" stroke="#0cc2b3" stroke-width="1.8"/><circle cx="179.0" cy="336.1" r="3.2" fill="#ffffff" stroke="#0cc2b3" stroke-width="1.8"/><circle cx="195.8" cy="329.4" r="3.2" fill="#ffffff" stroke="#0cc2b3" stroke-width="1.8"/><circle cx="212.7" cy="324.4" r="3.2" fill="#ffffff" stroke="#0cc2b3" stroke-width="1.8"/><circle cx="229.5" cy="317.3" r="3.2" fill="#ffffff" stroke="#0cc2b3" stroke-width="1.8"/><circle cx="246.3" cy="307.9" r="3.2" fill="#ffffff" stroke="#0cc2b3" stroke-width="1.8"/><circle cx="263.2" cy="300.5" r="3.2" fill="#ffffff" stroke="#0cc2b3" stroke-width="1.8"/><circle cx="280.0" cy="294.1" r="3.2" fill="#ffffff" stroke="#0cc2b3" stroke-width="1.8"/><circle cx="296.8" cy="288.1" r="3.2" fill="#ffffff" stroke="#0cc2b3" stroke-width="1.8"/><circle cx="313.7" cy="280.8" r="3.2" fill="#ffffff" stroke="#0cc2b3" stroke-width="1.8"/><circle cx="330.5" cy="275.8" r="3.2" fill="#ffffff" stroke="#0cc2b3" stroke-width="1.8"/><circle cx="347.3" cy="270.1" r="3.2" fill="#ffffff" stroke="#0cc2b3" stroke-width="1.8"/><circle cx="364.2" cy="265.5" r="3.2" fill="#ffffff" stroke="#0cc2b3" stroke-width="1.8"/><circle cx="381.0" cy="261.4" r="3.2" fill="#ffffff" stroke="#0cc2b3" stroke-width="1.8"/><circle cx="397.8" cy="261.4" r="3.2" fill="#ffffff" stroke="#0cc2b3" stroke-width="1.8"/><circle cx="414.7" cy="257.7" r="3.2" fill="#ffffff" stroke="#0cc2b3" stroke-width="1.8"/><circle cx="431.5" cy="254.3" r="3.2" fill="#ffffff" stroke="#0cc2b3" stroke-width="1.8"/><circle cx="448.3" cy="251.2" r="3.2" fill="#ffffff" stroke="#0cc2b3" stroke-width="1.8"/><circle cx="465.2" cy="251.2" r="3.2" fill="#ffffff" stroke="#0cc2b3" stroke-width="1.8"/><circle cx="482.0" cy="251.2" r="3.2" fill="#ffffff" stroke="#0cc2b3" stroke-width="1.8"/><circle cx="498.8" cy="247.4" r="3.2" fill="#ffffff" stroke="#0cc2b3" stroke-width="1.8"/><circle cx="515.7" cy="241.2" r="3.2" fill="#ffffff" stroke="#0cc2b3" stroke-width="1.8"/><circle cx="532.5" cy="233.4" r="3.2" fill="#ffffff" stroke="#0cc2b3" stroke-width="1.8"/><circle cx="549.3" cy="228.7" r="3.2" fill="#ffffff" stroke="#0cc2b3" stroke-width="1.8"/><circle cx="566.2" cy="223.4" r="3.2" fill="#ffffff" stroke="#0cc2b3" stroke-width="1.8"/><circle cx="583.0" cy="211.3" r="3.2" fill="#ffffff" stroke="#0cc2b3" stroke-width="1.8"/><circle cx="599.8" cy="211.3" r="3.2" fill="#ffffff" stroke="#0cc2b3" stroke-width="1.8"/><circle cx="616.7" cy="203.9" r="3.2" fill="#ffffff" stroke="#0cc2b3" stroke-width="1.8"/><circle cx="633.5" cy="197.5" r="3.2" fill="#ffffff" stroke="#0cc2b3" stroke-width="1.8"/><circle cx="650.3" cy="192.6" r="3.2" fill="#ffffff" stroke="#0cc2b3" stroke-width="1.8"/><circle cx="667.2" cy="188.8" r="3.2" fill="#ffffff" stroke="#0cc2b3" stroke-width="1.8"/><circle cx="684.0" cy="184.3" r="3.2" fill="#ffffff" stroke="#0cc2b3" stroke-width="1.8"/><circle cx="700.8" cy="180.5" r="3.2" fill="#ffffff" stroke="#0cc2b3" stroke-width="1.8"/><circle cx="717.7" cy="177.2" r="3.2" fill="#ffffff" stroke="#0cc2b3" stroke-width="1.8"/><circle cx="734.5" cy="172.0" r="3.2" fill="#ffffff" stroke="#0cc2b3" stroke-width="1.8"/><circle cx="751.3" cy="167.1" r="3.2" fill="#ffffff" stroke="#0cc2b3" stroke-width="1.8"/><circle cx="768.2" cy="163.6" r="3.2" fill="#ffffff" stroke="#0cc2b3" stroke-width="1.8"/><circle cx="785.0" cy="158.6" r="3.2" fill="#ffffff" stroke="#0cc2b3" stroke-width="1.8"/><circle cx="801.8" cy="152.2" r="3.2" fill="#ffffff" stroke="#0cc2b3" stroke-width="1.8"/><circle cx="818.7" cy="146.4" r="3.2" fill="#ffffff" stroke="#0cc2b3" stroke-width="1.8"/><circle cx="835.5" cy="138.5" r="3.2" fill="#ffffff" stroke="#0cc2b3" stroke-width="1.8"/><circle cx="852.3" cy="128.2" r="3.2" fill="#ffffff" stroke="#0cc2b3" stroke-width="1.8"/><circle cx="869.2" cy="122.1" r="3.2" fill="#ffffff" stroke="#0cc2b3" stroke-width="1.8"/><circle cx="886.0" cy="117.8" r="4.6" fill="#ffffff" stroke="#0cc2b3" stroke-width="2.6"/>
  <text x="78.0" y="398" text-anchor="middle" font-size="11" fill="#9aa3b5" >08-15</text><text x="162.2" y="398" text-anchor="middle" font-size="11" fill="#9aa3b5" >08-20</text><text x="246.3" y="398" text-anchor="middle" font-size="11" fill="#9aa3b5" >08-25</text><text x="330.5" y="398" text-anchor="middle" font-size="11" fill="#9aa3b5" >08-30</text><text x="414.7" y="398" text-anchor="middle" font-size="11" fill="#9aa3b5" >09-04</text><text x="498.8" y="398" text-anchor="middle" font-size="11" fill="#9aa3b5" >09-09</text><text x="583.0" y="398" text-anchor="middle" font-size="11" fill="#9aa3b5" >09-14</text><text x="667.2" y="398" text-anchor="middle" font-size="11" fill="#9aa3b5" >09-19</text><text x="751.3" y="398" text-anchor="middle" font-size="11" fill="#9aa3b5" >09-24</text><text x="835.5" y="398" text-anchor="middle" font-size="11" fill="#9aa3b5" >09-29</text><text x="886.0" y="398" text-anchor="middle" font-size="11" fill="#0cc2b3" font-weight="600">10-02</text>
  
    <text x="886" y="418" text-anchor="end" font-size="11" fill="#7a8399" font-family="system-ui,-apple-system,'Segoe UI',sans-serif">数据截至 2026-10-02（npm 结算有约 1 天延迟）</text>
</svg>
