<?xml version="1.0" encoding="UTF-8"?>
<svg xmlns="http://www.w3.org/2000/svg" width="960" height="430" viewBox="0 0 960 430" role="img" aria-label="dsh-dream-skin 每日 Star 与累计下载量双轴折线图">
  
    <defs>
      <linearGradient id="gradDl" x1="0" y1="0" x2="0" y2="1">
        <stop offset="0%" stop-color="#0cc2b3" stop-opacity="0.24"/>
        <stop offset="100%" stop-color="#0cc2b3" stop-opacity="0"/>
      </linearGradient>
      <linearGradient id="gradSt" x1="0" y1="0" x2="0" y2="1">
        <stop offset="0%" stop-color="#8b5cf6" stop-opacity="0.18"/>
        <stop offset="100%" stop-color="#8b5cf6" stop-opacity="0"/>
      </linearGradient>
      <linearGradient id="bgGrad" x1="0" y1="0" x2="0" y2="1">
        <stop offset="0%" stop-color="#fbfdff"/>
        <stop offset="100%" stop-color="#f2f6fb"/>
      </linearGradient>
    </defs>
  <rect width="960" height="430" fill="url(#bgGrad)"/>
  <g font-family="system-ui,-apple-system,'Segoe UI',sans-serif">
    <text x="18" y="226" font-size="12" fill="#8b5cf6" transform="rotate(-90 18 226)" text-anchor="middle">Star</text>
    <text x="944" y="226" font-size="12" fill="#0cc2b3" transform="rotate(-90 944 226)" text-anchor="middle">累计下载量</text>
  </g>

  
    <text x="78" y="34" font-size="19" font-weight="700" fill="#171c28" font-family="system-ui,-apple-system,'Segoe UI',sans-serif">dsh-dream-skin · 每日成长曲线</text>
    <text x="78" y="54" font-size="12" fill="#7a8399" font-family="system-ui,-apple-system,'Segoe UI',sans-serif">数据自动更新 · 下载量来自 npm，Star 来自 GitHub</text>
  
    <g font-family="system-ui,-apple-system,'Segoe UI',sans-serif">
      <rect x="556" y="22" width="330" height="46" rx="12" fill="#ffffff" fill-opacity="0.72"
        stroke="#e3e8f0" stroke-width="1"/>
      <circle cx="582" cy="40" r="5" fill="#0cc2b3"/>
      <text x="596" y="44" font-size="13" font-weight="600" fill="#2c3344">下载量</text>
      <text x="662" y="44" font-size="13" font-weight="600" fill="#0cc2b3">33.4k</text>
      <circle cx="734" cy="40" r="5" fill="#8b5cf6"/>
      <text x="748" y="44" font-size="13" font-weight="600" fill="#2c3344">Star</text>
      <text x="786" y="44" font-size="13" font-weight="600" fill="#8b5cf6">162</text>
    </g>

  <line x1="78" y1="378.0" x2="886" y2="378.0" stroke="#d3d9e8" stroke-width="1.2" /><line x1="78" y1="317.2" x2="886" y2="317.2" stroke="#e8ebf2" stroke-width="1" stroke-dasharray="3 4"/><line x1="78" y1="256.4" x2="886" y2="256.4" stroke="#e8ebf2" stroke-width="1" stroke-dasharray="3 4"/><line x1="78" y1="195.6" x2="886" y2="195.6" stroke="#e8ebf2" stroke-width="1" stroke-dasharray="3 4"/><line x1="78" y1="134.8" x2="886" y2="134.8" stroke="#e8ebf2" stroke-width="1" stroke-dasharray="3 4"/><line x1="78" y1="74.0" x2="886" y2="74.0" stroke="#e8ebf2" stroke-width="1" stroke-dasharray="3 4"/>
  <g font-family="system-ui,-apple-system,'Segoe UI',sans-serif"><text x="68" y="381.0" text-anchor="end" font-size="11" fill="#9aa3b5">0</text><text x="68" y="320.2" text-anchor="end" font-size="11" fill="#9aa3b5">40</text><text x="68" y="259.4" text-anchor="end" font-size="11" fill="#9aa3b5">80</text><text x="68" y="198.6" text-anchor="end" font-size="11" fill="#9aa3b5">120</text><text x="68" y="137.8" text-anchor="end" font-size="11" fill="#9aa3b5">160</text><text x="68" y="77.0" text-anchor="end" font-size="11" fill="#9aa3b5">200</text><text x="896" y="381.0" text-anchor="start" font-size="11" fill="#9aa3b5">0</text><text x="896" y="320.2" text-anchor="start" font-size="11" fill="#9aa3b5">8k</text><text x="896" y="259.4" text-anchor="start" font-size="11" fill="#9aa3b5">16k</text><text x="896" y="198.6" text-anchor="start" font-size="11" fill="#9aa3b5">24k</text><text x="896" y="137.8" text-anchor="start" font-size="11" fill="#9aa3b5">32k</text><text x="896" y="77.0" text-anchor="start" font-size="11" fill="#9aa3b5">40k</text></g>

  <!-- 轴线 -->
  <line x1="78" y1="74" x2="78" y2="378" stroke="#cdd3e2" stroke-width="1"/>
  <line x1="78" y1="378" x2="886" y2="378" stroke="#cdd3e2" stroke-width="1"/>

  <path d="M 78.0 378.0 L 78.0 368.1 L 104.9 359.7 L 131.9 351.0 L 158.8 344.0 L 185.7 336.1 L 212.7 329.5 L 239.6 312.5 L 266.5 302.0 L 293.5 294.2 L 320.4 283.2 L 347.3 268.5 L 374.3 256.9 L 401.2 247.0 L 428.1 237.6 L 455.1 226.1 L 482.0 218.3 L 508.9 209.4 L 535.9 202.3 L 562.8 202.3 L 589.7 202.3 L 616.7 196.4 L 643.6 191.2 L 670.5 186.3 L 697.5 186.3 L 724.4 186.3 L 751.3 180.4 L 778.3 170.6 L 805.2 158.4 L 832.1 151.1 L 859.1 142.8 L 886.0 124.0 L 886.0 378.0 Z" fill="url(#gradDl)" stroke="none"/>
  <path d="M 78.0 378.0 L 78.0 368.9 L 104.9 332.4 L 131.9 314.2 L 158.8 295.9 L 185.7 285.3 L 212.7 282.2 L 239.6 270.1 L 266.5 257.9 L 293.5 247.3 L 320.4 235.1 L 347.3 216.9 L 374.3 209.3 L 401.2 200.2 L 428.1 195.6 L 455.1 189.5 L 482.0 185.0 L 508.9 181.9 L 535.9 180.4 L 562.8 175.8 L 589.7 169.8 L 616.7 168.2 L 643.6 159.1 L 670.5 156.1 L 697.5 153.0 L 724.4 151.5 L 751.3 150.0 L 778.3 140.9 L 805.2 137.8 L 832.1 137.8 L 859.1 136.3 L 886.0 131.8 L 886.0 378.0 Z" fill="url(#gradSt)" stroke="none"/>
  <polyline points="78.0,368.9 104.9,332.4 131.9,314.2 158.8,295.9 185.7,285.3 212.7,282.2 239.6,270.1 266.5,257.9 293.5,247.3 320.4,235.1 347.3,216.9 374.3,209.3 401.2,200.2 428.1,195.6 455.1,189.5 482.0,185.0 508.9,181.9 535.9,180.4 562.8,175.8 589.7,169.8 616.7,168.2 643.6,159.1 670.5,156.1 697.5,153.0 724.4,151.5 751.3,150.0 778.3,140.9 805.2,137.8 832.1,137.8 859.1,136.3 886.0,131.8" fill="none" stroke="#8b5cf6" stroke-width="3" stroke-linecap="round" stroke-linejoin="round"/>
  <circle cx="78.0" cy="368.9" r="3.2" fill="#ffffff" stroke="#8b5cf6" stroke-width="1.8"/><circle cx="104.9" cy="332.4" r="3.2" fill="#ffffff" stroke="#8b5cf6" stroke-width="1.8"/><circle cx="131.9" cy="314.2" r="3.2" fill="#ffffff" stroke="#8b5cf6" stroke-width="1.8"/><circle cx="158.8" cy="295.9" r="3.2" fill="#ffffff" stroke="#8b5cf6" stroke-width="1.8"/><circle cx="185.7" cy="285.3" r="3.2" fill="#ffffff" stroke="#8b5cf6" stroke-width="1.8"/><circle cx="212.7" cy="282.2" r="3.2" fill="#ffffff" stroke="#8b5cf6" stroke-width="1.8"/><circle cx="239.6" cy="270.1" r="3.2" fill="#ffffff" stroke="#8b5cf6" stroke-width="1.8"/><circle cx="266.5" cy="257.9" r="3.2" fill="#ffffff" stroke="#8b5cf6" stroke-width="1.8"/><circle cx="293.5" cy="247.3" r="3.2" fill="#ffffff" stroke="#8b5cf6" stroke-width="1.8"/><circle cx="320.4" cy="235.1" r="3.2" fill="#ffffff" stroke="#8b5cf6" stroke-width="1.8"/><circle cx="347.3" cy="216.9" r="3.2" fill="#ffffff" stroke="#8b5cf6" stroke-width="1.8"/><circle cx="374.3" cy="209.3" r="3.2" fill="#ffffff" stroke="#8b5cf6" stroke-width="1.8"/><circle cx="401.2" cy="200.2" r="3.2" fill="#ffffff" stroke="#8b5cf6" stroke-width="1.8"/><circle cx="428.1" cy="195.6" r="3.2" fill="#ffffff" stroke="#8b5cf6" stroke-width="1.8"/><circle cx="455.1" cy="189.5" r="3.2" fill="#ffffff" stroke="#8b5cf6" stroke-width="1.8"/><circle cx="482.0" cy="185.0" r="3.2" fill="#ffffff" stroke="#8b5cf6" stroke-width="1.8"/><circle cx="508.9" cy="181.9" r="3.2" fill="#ffffff" stroke="#8b5cf6" stroke-width="1.8"/><circle cx="535.9" cy="180.4" r="3.2" fill="#ffffff" stroke="#8b5cf6" stroke-width="1.8"/><circle cx="562.8" cy="175.8" r="3.2" fill="#ffffff" stroke="#8b5cf6" stroke-width="1.8"/><circle cx="589.7" cy="169.8" r="3.2" fill="#ffffff" stroke="#8b5cf6" stroke-width="1.8"/><circle cx="616.7" cy="168.2" r="3.2" fill="#ffffff" stroke="#8b5cf6" stroke-width="1.8"/><circle cx="643.6" cy="159.1" r="3.2" fill="#ffffff" stroke="#8b5cf6" stroke-width="1.8"/><circle cx="670.5" cy="156.1" r="3.2" fill="#ffffff" stroke="#8b5cf6" stroke-width="1.8"/><circle cx="697.5" cy="153.0" r="3.2" fill="#ffffff" stroke="#8b5cf6" stroke-width="1.8"/><circle cx="724.4" cy="151.5" r="3.2" fill="#ffffff" stroke="#8b5cf6" stroke-width="1.8"/><circle cx="751.3" cy="150.0" r="3.2" fill="#ffffff" stroke="#8b5cf6" stroke-width="1.8"/><circle cx="778.3" cy="140.9" r="3.2" fill="#ffffff" stroke="#8b5cf6" stroke-width="1.8"/><circle cx="805.2" cy="137.8" r="3.2" fill="#ffffff" stroke="#8b5cf6" stroke-width="1.8"/><circle cx="832.1" cy="137.8" r="3.2" fill="#ffffff" stroke="#8b5cf6" stroke-width="1.8"/><circle cx="859.1" cy="136.3" r="3.2" fill="#ffffff" stroke="#8b5cf6" stroke-width="1.8"/><circle cx="886.0" cy="131.8" r="4.6" fill="#ffffff" stroke="#8b5cf6" stroke-width="2.6"/>
  <polyline points="78.0,368.1 104.9,359.7 131.9,351.0 158.8,344.0 185.7,336.1 212.7,329.5 239.6,312.5 266.5,302.0 293.5,294.2 320.4,283.2 347.3,268.5 374.3,256.9 401.2,247.0 428.1,237.6 455.1,226.1 482.0,218.3 508.9,209.4 535.9,202.3 562.8,202.3 589.7,202.3 616.7,196.4 643.6,191.2 670.5,186.3 697.5,186.3 724.4,186.3 751.3,180.4 778.3,170.6 805.2,158.4 832.1,151.1 859.1,142.8 886.0,124.0" fill="none" stroke="#0cc2b3" stroke-width="3.2" stroke-linecap="round" stroke-linejoin="round"/>
  <circle cx="78.0" cy="368.1" r="3.2" fill="#ffffff" stroke="#0cc2b3" stroke-width="1.8"/><circle cx="104.9" cy="359.7" r="3.2" fill="#ffffff" stroke="#0cc2b3" stroke-width="1.8"/><circle cx="131.9" cy="351.0" r="3.2" fill="#ffffff" stroke="#0cc2b3" stroke-width="1.8"/><circle cx="158.8" cy="344.0" r="3.2" fill="#ffffff" stroke="#0cc2b3" stroke-width="1.8"/><circle cx="185.7" cy="336.1" r="3.2" fill="#ffffff" stroke="#0cc2b3" stroke-width="1.8"/><circle cx="212.7" cy="329.5" r="3.2" fill="#ffffff" stroke="#0cc2b3" stroke-width="1.8"/><circle cx="239.6" cy="312.5" r="3.2" fill="#ffffff" stroke="#0cc2b3" stroke-width="1.8"/><circle cx="266.5" cy="302.0" r="3.2" fill="#ffffff" stroke="#0cc2b3" stroke-width="1.8"/><circle cx="293.5" cy="294.2" r="3.2" fill="#ffffff" stroke="#0cc2b3" stroke-width="1.8"/><circle cx="320.4" cy="283.2" r="3.2" fill="#ffffff" stroke="#0cc2b3" stroke-width="1.8"/><circle cx="347.3" cy="268.5" r="3.2" fill="#ffffff" stroke="#0cc2b3" stroke-width="1.8"/><circle cx="374.3" cy="256.9" r="3.2" fill="#ffffff" stroke="#0cc2b3" stroke-width="1.8"/><circle cx="401.2" cy="247.0" r="3.2" fill="#ffffff" stroke="#0cc2b3" stroke-width="1.8"/><circle cx="428.1" cy="237.6" r="3.2" fill="#ffffff" stroke="#0cc2b3" stroke-width="1.8"/><circle cx="455.1" cy="226.1" r="3.2" fill="#ffffff" stroke="#0cc2b3" stroke-width="1.8"/><circle cx="482.0" cy="218.3" r="3.2" fill="#ffffff" stroke="#0cc2b3" stroke-width="1.8"/><circle cx="508.9" cy="209.4" r="3.2" fill="#ffffff" stroke="#0cc2b3" stroke-width="1.8"/><circle cx="535.9" cy="202.3" r="3.2" fill="#ffffff" stroke="#0cc2b3" stroke-width="1.8"/><circle cx="562.8" cy="202.3" r="3.2" fill="#ffffff" stroke="#0cc2b3" stroke-width="1.8"/><circle cx="589.7" cy="202.3" r="3.2" fill="#ffffff" stroke="#0cc2b3" stroke-width="1.8"/><circle cx="616.7" cy="196.4" r="3.2" fill="#ffffff" stroke="#0cc2b3" stroke-width="1.8"/><circle cx="643.6" cy="191.2" r="3.2" fill="#ffffff" stroke="#0cc2b3" stroke-width="1.8"/><circle cx="670.5" cy="186.3" r="3.2" fill="#ffffff" stroke="#0cc2b3" stroke-width="1.8"/><circle cx="697.5" cy="186.3" r="3.2" fill="#ffffff" stroke="#0cc2b3" stroke-width="1.8"/><circle cx="724.4" cy="186.3" r="3.2" fill="#ffffff" stroke="#0cc2b3" stroke-width="1.8"/><circle cx="751.3" cy="180.4" r="3.2" fill="#ffffff" stroke="#0cc2b3" stroke-width="1.8"/><circle cx="778.3" cy="170.6" r="3.2" fill="#ffffff" stroke="#0cc2b3" stroke-width="1.8"/><circle cx="805.2" cy="158.4" r="3.2" fill="#ffffff" stroke="#0cc2b3" stroke-width="1.8"/><circle cx="832.1" cy="151.1" r="3.2" fill="#ffffff" stroke="#0cc2b3" stroke-width="1.8"/><circle cx="859.1" cy="142.8" r="3.2" fill="#ffffff" stroke="#0cc2b3" stroke-width="1.8"/><circle cx="886.0" cy="124.0" r="4.6" fill="#ffffff" stroke="#0cc2b3" stroke-width="2.6"/>
  <text x="78.0" y="398" text-anchor="middle" font-size="11" fill="#9aa3b5" >08-15</text><text x="185.7" y="398" text-anchor="middle" font-size="11" fill="#9aa3b5" >08-19</text><text x="293.5" y="398" text-anchor="middle" font-size="11" fill="#9aa3b5" >08-23</text><text x="401.2" y="398" text-anchor="middle" font-size="11" fill="#9aa3b5" >08-27</text><text x="508.9" y="398" text-anchor="middle" font-size="11" fill="#9aa3b5" >08-31</text><text x="616.7" y="398" text-anchor="middle" font-size="11" fill="#9aa3b5" >09-04</text><text x="724.4" y="398" text-anchor="middle" font-size="11" fill="#9aa3b5" >09-08</text><text x="832.1" y="398" text-anchor="middle" font-size="11" fill="#9aa3b5" >09-12</text><text x="886.0" y="398" text-anchor="middle" font-size="11" fill="#0cc2b3" font-weight="600">09-14</text>
  
    <text x="886" y="418" text-anchor="end" font-size="11" fill="#7a8399" font-family="system-ui,-apple-system,'Segoe UI',sans-serif">数据截至 2026-09-14（npm 结算有约 1 天延迟）</text>
</svg>
